<svg width="890" height="155" viewBox="0 0 890 155" fill="none" xmlns="http://www.w3.org/2000/svg">
<g clip-path="url(#clip0_3_6)" filter="url(#filter0_n_3_6)">
<path d="M63.9713 67.8125C56.357 67.8125 47.7372 69.2477 38.1117 72.1181V152.847H0.399841V38.75H33.8018L35.9567 49.5139C42.709 45.0649 49.6049 41.8357 56.6444 39.8264C63.8276 37.6736 69.8615 36.5972 74.7461 36.5972H84.4434C94.2126 36.5972 102.042 39.5393 107.932 45.4236C113.823 51.3079 116.768 59.1296 116.768 68.8889V152.847H79.056V75.3472C79.056 73.1945 78.3377 71.4004 76.9011 69.9653C75.4644 68.5301 73.6686 67.8125 71.5136 67.8125H63.9713ZM252.506 120.556C252.506 131.319 249.417 139.787 243.239 145.958C237.205 151.986 228.801 155 218.026 155H168.462C157.687 155 149.211 151.986 143.034 145.958C137 139.787 133.983 131.319 133.983 120.556V71.0417C133.983 60.2778 137 51.8819 143.034 45.8542C149.211 39.6829 157.687 36.5972 168.462 36.5972H218.026C228.801 36.5972 237.205 39.6829 243.239 45.8542C249.417 51.8819 252.506 60.2778 252.506 71.0417V120.556ZM214.794 74.2708C214.794 68.5301 211.92 65.6597 206.174 65.6597H180.314C174.567 65.6597 171.695 68.5301 171.695 74.2708V117.326C171.695 123.067 174.567 125.938 180.314 125.938H206.174C211.92 125.938 214.794 123.067 214.794 117.326V74.2708ZM319.284 43.0556V152.847H281.572V72.1181H265.41V43.0556H319.284ZM281.572 0H319.284V30.1389H281.572V0ZM336.591 122.708C365.754 124.861 388.741 125.938 405.55 125.938C407.705 125.938 409.5 125.22 410.938 123.785C412.374 122.35 413.092 120.556 413.092 118.403V110.868H366.761C356.991 110.868 349.161 107.926 343.272 102.042C337.381 96.1574 334.436 88.3357 334.436 78.5764V71.0417C334.436 61.2824 337.381 53.4607 343.272 47.5764C349.161 41.6921 356.991 38.75 366.761 38.75H440.03V66.7361H379.691C377.536 66.7361 375.739 67.4537 374.303 68.8889C372.866 70.324 372.148 72.1181 372.148 74.2708C372.148 76.4236 372.866 78.2176 374.303 79.6528C375.739 81.0879 377.536 81.8056 379.691 81.8056H418.48C428.248 81.8056 436.078 84.7477 441.969 90.6319C447.859 96.5162 450.804 104.338 450.804 114.097V122.708C450.804 132.468 447.859 140.289 441.969 146.174C436.078 152.058 428.248 155 418.48 155C393.051 155 365.754 153.565 336.591 150.694V122.708ZM510.082 63.507C504.336 63.507 501.462 66.3774 501.462 72.1181V83.9583H538.097V72.1181C538.097 66.3774 535.224 63.507 529.477 63.507H510.082ZM571.498 150.694C543.772 153.565 518.631 155 496.075 155C486.306 155 478.476 152.058 472.586 146.174C466.696 140.289 463.75 132.468 463.75 122.708V71.0417C463.75 60.2778 466.767 51.8819 472.801 45.8542C478.979 39.6829 487.455 36.5972 498.23 36.5972H541.329C552.104 36.5972 560.508 39.6829 566.542 45.8542C572.72 51.8819 575.808 60.2778 575.808 71.0417V110.868H501.462V119.479C501.462 121.632 502.181 123.426 503.617 124.861C505.054 126.296 506.85 127.014 509.005 127.014C523.227 127.014 544.059 125.938 571.498 123.785V150.694ZM636.063 152.847H597.274V2.15278H636.063V61.3542H655.458L689.075 2.15278H730.02L687.782 76.4236L729.804 152.847H688.86L655.458 91.4931H636.063V152.847ZM788.156 43.0556V152.847H750.444V72.1181H734.282V43.0556H788.156ZM750.444 0H788.156V30.1389H750.444V0ZM889.508 152.847C875.572 154.282 861.924 155 848.563 155C838.794 155 830.965 152.058 825.074 146.174C819.183 140.289 816.239 132.468 816.239 122.708V67.8125H803.309V38.75H816.239L820.549 12.9167H853.951V38.75H880.888V67.8125H853.951V117.326C853.951 119.479 854.669 121.274 856.106 122.708C857.542 124.143 859.338 124.861 861.493 124.861H889.508V152.847Z" fill="url(#paint0_linear_3_6)"/>
</g>
<defs>
<filter id="filter0_n_3_6" x="0" y="0" width="890" height="155" filterUnits="userSpaceOnUse" color-interpolation-filters="sRGB">
<feFlood flood-opacity="0" result="BackgroundImageFix"/>
<feBlend mode="normal" in="SourceGraphic" in2="BackgroundImageFix" result="shape"/>
<feTurbulence type="fractalNoise" baseFrequency="2.5 2.5" stitchTiles="stitch" numOctaves="3" result="noise" seed="9918" />
<feColorMatrix in="noise" type="luminanceToAlpha" result="alphaNoise" />
<feComponentTransfer in="alphaNoise" result="coloredNoise1">
<feFuncA type="discrete" tableValues="1 1 1 1 1 1 1 1 1 1 1 1 1 1 1 1 1 1 1 1 1 1 1 1 1 1 1 1 1 1 1 1 1 1 1 1 1 1 1 1 1 1 1 1 1 1 1 1 1 1 1 0 0 0 0 0 0 0 0 0 0 0 0 0 0 0 0 0 0 0 0 0 0 0 0 0 0 0 0 0 0 0 0 0 0 0 0 0 0 0 0 0 0 0 0 0 0 0 0 0 "/>
</feComponentTransfer>
<feComposite operator="in" in2="shape" in="coloredNoise1" result="noise1Clipped" />
<feComponentTransfer in="alphaNoise" result="coloredNoise2">
<feFuncA type="discrete" tableValues="0 0 0 0 0 0 0 0 0 0 0 0 0 0 0 0 0 0 0 0 0 0 0 0 0 0 0 0 0 0 0 0 0 0 0 0 0 0 0 0 0 0 0 0 0 0 0 0 0 1 1 1 1 1 1 1 1 1 1 1 1 1 1 1 1 1 1 1 1 1 1 1 1 1 1 1 1 1 1 1 1 1 1 1 1 1 1 1 1 1 1 1 1 1 1 1 1 1 1 1 "/>
</feComponentTransfer>
<feComposite operator="in" in2="shape" in="coloredNoise2" result="noise2Clipped" />
<feFlood flood-color="rgba(59, 196, 61, 0.25)" result="color1Flood" />
<feComposite operator="in" in2="noise1Clipped" in="color1Flood" result="color1" />
<feFlood flood-color="rgba(255, 255, 255, 0.25)" result="color2Flood" />
<feComposite operator="in" in2="noise2Clipped" in="color2Flood" result="color2" />
<feMerge result="effect1_noise_3_6">
<feMergeNode in="shape" />
<feMergeNode in="color1" />
<feMergeNode in="color2" />
</feMerge>
</filter>
<linearGradient id="paint0_linear_3_6" x1="782.318" y1="58.125" x2="197.728" y2="148.799" gradientUnits="userSpaceOnUse">
<stop offset="0.350962" stop-color="#84CC16"/>
<stop offset="1" stop-color="#65A30D"/>
</linearGradient>
<clipPath id="clip0_3_6">
<rect width="890" height="155" fill="white"/>
</clipPath>
</defs>
</svg>
