<svg width="840" height="311" viewBox="0 0 840 311" fill="none" xmlns="http://www.w3.org/2000/svg">
<path d="M69.3711 106C62.3044 106 54.3044 107.333 45.3711 110V185H10.3711V79H41.3711L43.3711 89C49.6378 84.8667 56.0378 81.8667 62.5711 80C69.2378 78 74.8378 77 79.3711 77H88.3711C97.4378 77 104.704 79.7333 110.171 85.2C115.638 90.6667 118.371 97.9333 118.371 107V185H83.3711V113C83.3711 111 82.7044 109.333 81.3711 108C80.0378 106.667 78.3711 106 76.3711 106H69.3711ZM244.348 155C244.348 165 241.481 172.867 235.748 178.6C230.148 184.2 222.348 187 212.348 187H166.348C156.348 187 148.481 184.2 142.748 178.6C137.148 172.867 134.348 165 134.348 155V109C134.348 99 137.148 91.2 142.748 85.6C148.481 79.8667 156.348 77 166.348 77H212.348C222.348 77 230.148 79.8667 235.748 85.6C241.481 91.2 244.348 99 244.348 109V155ZM209.348 112C209.348 106.667 206.681 104 201.348 104H177.348C172.014 104 169.348 106.667 169.348 112V152C169.348 157.333 172.014 160 177.348 160H201.348C206.681 160 209.348 157.333 209.348 152V112ZM306.324 83V185H271.324V110H256.324V83H306.324ZM271.324 43H306.324V71H271.324V43ZM322.387 157C349.453 159 370.787 160 386.387 160C388.387 160 390.053 159.333 391.387 158C392.72 156.667 393.387 155 393.387 153V146H350.387C341.32 146 334.053 143.267 328.587 137.8C323.12 132.333 320.387 125.067 320.387 116V109C320.387 99.9333 323.12 92.6667 328.587 87.2C334.053 81.7333 341.32 79 350.387 79H418.387V105H362.387C360.387 105 358.72 105.667 357.387 107C356.053 108.333 355.387 110 355.387 112C355.387 114 356.053 115.667 357.387 117C358.72 118.333 360.387 119 362.387 119H398.387C407.453 119 414.72 121.733 420.187 127.2C425.653 132.667 428.387 139.933 428.387 149V157C428.387 166.067 425.653 173.333 420.187 178.8C414.72 184.267 407.453 187 398.387 187C374.787 187 349.453 185.667 322.387 183V157ZM483.402 102C478.069 102 475.402 104.667 475.402 110V121H509.402V110C509.402 104.667 506.736 102 501.402 102H483.402ZM540.402 183C514.669 185.667 491.336 187 470.402 187C461.336 187 454.069 184.267 448.602 178.8C443.136 173.333 440.402 166.067 440.402 157V109C440.402 99 443.202 91.2 448.802 85.6C454.536 79.8667 462.402 77 472.402 77H512.402C522.402 77 530.202 79.8667 535.802 85.6C541.536 91.2 544.402 99 544.402 109V146H475.402V154C475.402 156 476.069 157.667 477.402 159C478.736 160.333 480.402 161 482.402 161C495.602 161 514.936 160 540.402 158V183ZM600.324 185H564.324V45H600.324V100H618.324L649.524 45H687.524L648.324 114L687.324 185H649.324L618.324 128H600.324V185ZM741.48 83V185H706.48V110H691.48V83H741.48ZM706.48 43H741.48V71H706.48V43ZM835.543 185C822.61 186.333 809.943 187 797.543 187C788.476 187 781.21 184.267 775.743 178.8C770.276 173.333 767.543 166.067 767.543 157V106H755.543V79H767.543L771.543 55H802.543V79H827.543V106H802.543V152C802.543 154 803.21 155.667 804.543 157C805.876 158.333 807.543 159 809.543 159H835.543V185Z" fill="url(#paint0_linear_1_6)"/>
<path d="M38.1801 291H21.2601V238.36H1.52008V225.2H57.9201V238.36H38.1801V291ZM80.0211 242.12C86.0998 240.867 91.4264 240.24 96.0011 240.24H100.231C104.492 240.24 107.908 241.525 110.477 244.094C113.046 246.663 114.331 250.079 114.331 254.34V291H97.8811V256.22C97.8811 255.28 97.5678 254.497 96.9411 253.87C96.3144 253.243 95.5311 252.93 94.5911 252.93H91.3011C88.9198 252.93 86.7264 253.055 84.7211 253.306C82.7784 253.557 81.2118 253.745 80.0211 253.87V291H63.5711V225.2H80.0211V242.12ZM142.05 251.99C139.543 251.99 138.29 253.243 138.29 255.75V260.92H154.27V255.75C154.27 253.243 153.017 251.99 150.51 251.99H142.05ZM168.84 290.06C156.745 291.313 145.779 291.94 135.94 291.94C131.679 291.94 128.263 290.655 125.694 288.086C123.125 285.517 121.84 282.101 121.84 277.84V255.28C121.84 250.58 123.156 246.914 125.788 244.282C128.483 241.587 132.18 240.24 136.88 240.24H155.68C160.38 240.24 164.046 241.587 166.678 244.282C169.373 246.914 170.72 250.58 170.72 255.28V272.67H138.29V276.43C138.29 277.37 138.603 278.153 139.23 278.78C139.857 279.407 140.64 279.72 141.58 279.72C147.784 279.72 156.871 279.25 168.84 278.31V290.06ZM235.055 253.87C231.734 253.87 227.974 254.497 223.775 255.75V278.31H237.875C240.382 278.31 241.635 277.057 241.635 274.55V257.16C241.635 256.22 241.322 255.437 240.695 254.81C240.068 254.183 239.285 253.87 238.345 253.87H235.055ZM223.775 291V306.98H207.325V241.18H221.895L222.835 245.88C225.78 243.937 228.788 242.527 231.859 241.65C234.992 240.71 237.624 240.24 239.755 240.24H243.985C248.246 240.24 251.662 241.525 254.231 244.094C256.8 246.663 258.085 250.079 258.085 254.34V275.96C258.085 280.66 256.738 284.357 254.043 287.052C251.411 289.684 247.745 291 243.045 291H223.775ZM285.804 251.99C283.297 251.99 282.044 253.243 282.044 255.75V260.92H298.024V255.75C298.024 253.243 296.771 251.99 294.264 251.99H285.804ZM312.594 290.06C300.499 291.313 289.533 291.94 279.694 291.94C275.433 291.94 272.017 290.655 269.448 288.086C266.879 285.517 265.594 282.101 265.594 277.84V255.28C265.594 250.58 266.91 246.914 269.542 244.282C272.237 241.587 275.934 240.24 280.634 240.24H299.434C304.134 240.24 307.8 241.587 310.432 244.282C313.127 246.914 314.474 250.58 314.474 255.28V272.67H282.044V276.43C282.044 277.37 282.357 278.153 282.984 278.78C283.611 279.407 284.394 279.72 285.334 279.72C291.538 279.72 300.625 279.25 312.594 278.31V290.06ZM351.567 254.81C347.619 254.81 343.546 255.75 339.347 257.63V291H322.897V241.18H337.467L338.407 247.29C343.797 242.59 349.437 240.24 355.327 240.24H359.557V254.81H351.567ZM406.554 237.89C404.736 237.765 402.324 237.577 399.316 237.326C396.308 237.075 393.707 236.95 391.514 236.95C389.32 236.95 387.91 237.263 387.284 237.89C386.657 238.517 386.344 239.3 386.344 240.24V244.94H401.854V257.63H386.344V291H369.894V257.63H363.314V244.94H369.894V238.36C369.894 234.099 371.178 230.683 373.748 228.114C376.317 225.545 379.732 224.26 383.994 224.26C387.816 224.26 391.858 224.385 396.12 224.636C400.381 224.887 403.859 225.075 406.554 225.2V237.89ZM427.722 251.99C425.215 251.99 423.962 253.243 423.962 255.75V260.92H439.942V255.75C439.942 253.243 438.689 251.99 436.182 251.99H427.722ZM454.512 290.06C442.417 291.313 431.451 291.94 421.612 291.94C417.351 291.94 413.935 290.655 411.366 288.086C408.797 285.517 407.512 282.101 407.512 277.84V255.28C407.512 250.58 408.828 246.914 411.46 244.282C414.155 241.587 417.852 240.24 422.552 240.24H441.352C446.052 240.24 449.718 241.587 452.35 244.282C455.045 246.914 456.392 250.58 456.392 255.28V272.67H423.962V276.43C423.962 277.37 424.275 278.153 424.902 278.78C425.529 279.407 426.312 279.72 427.252 279.72C433.456 279.72 442.543 279.25 454.512 278.31V290.06ZM508.995 290.06C497.277 291.313 486.937 291.94 477.975 291.94C473.714 291.94 470.299 290.655 467.729 288.086C465.16 285.517 463.875 282.101 463.875 277.84V256.22C463.875 251.52 465.191 247.854 467.823 245.222C470.518 242.527 474.215 241.18 478.915 241.18H508.995V253.87H484.085C481.579 253.87 480.325 255.123 480.325 257.63V275.96C480.325 276.9 480.639 277.683 481.265 278.31C481.892 278.937 482.675 279.25 483.615 279.25C489.255 279.25 497.715 278.78 508.995 277.84V290.06ZM551.277 291C545.198 291.627 539.245 291.94 533.417 291.94C529.156 291.94 525.74 290.655 523.171 288.086C520.602 285.517 519.317 282.101 519.317 277.84V253.87H513.677V241.18H519.317L521.197 229.9H535.767V241.18H547.517V253.87H535.767V275.49C535.767 276.43 536.08 277.213 536.707 277.84C537.334 278.467 538.117 278.78 539.057 278.78H551.277V291ZM584.199 277.84C596.92 278.78 606.947 279.25 614.279 279.25C615.219 279.25 616.002 278.937 616.629 278.31C617.256 277.683 617.569 276.9 617.569 275.96V272.67H597.359C593.098 272.67 589.682 271.385 587.113 268.816C584.544 266.247 583.259 262.831 583.259 258.57V255.28C583.259 251.019 584.544 247.603 587.113 245.034C589.682 242.465 593.098 241.18 597.359 241.18H629.319V253.4H602.999C602.059 253.4 601.276 253.713 600.649 254.34C600.022 254.967 599.709 255.75 599.709 256.69C599.709 257.63 600.022 258.413 600.649 259.04C601.276 259.667 602.059 259.98 602.999 259.98H619.919C624.18 259.98 627.596 261.265 630.165 263.834C632.734 266.403 634.019 269.819 634.019 274.08V277.84C634.019 282.101 632.734 285.517 630.165 288.086C627.596 290.655 624.18 291.94 619.919 291.94C608.827 291.94 596.92 291.313 584.199 290.06V277.84ZM675.386 291C669.308 291.627 663.354 291.94 657.526 291.94C653.265 291.94 649.85 290.655 647.28 288.086C644.711 285.517 643.426 282.101 643.426 277.84V253.87H637.786V241.18H643.426L645.306 229.9H659.876V241.18H671.626V253.87H659.876V275.49C659.876 276.43 660.19 277.213 660.816 277.84C661.443 278.467 662.226 278.78 663.166 278.78H675.386V291ZM699.911 278.78C703.232 278.78 706.992 278.153 711.191 276.9V271.26H697.561C696.621 271.26 695.837 271.573 695.211 272.2C694.584 272.827 694.271 273.61 694.271 274.55V275.49C694.271 276.43 694.584 277.213 695.211 277.84C695.837 278.467 696.621 278.78 697.561 278.78H699.911ZM682.521 242.12C693.989 240.867 704.329 240.24 713.541 240.24C717.802 240.24 721.217 241.525 723.787 244.094C726.356 246.663 727.641 250.079 727.641 254.34V291H713.071L712.131 286.3C709.185 288.243 706.146 289.684 703.013 290.624C699.942 291.501 697.341 291.94 695.211 291.94H691.921C687.659 291.94 684.244 290.655 681.675 288.086C679.105 285.517 677.821 282.101 677.821 277.84V273.61C677.821 269.349 679.105 265.933 681.675 263.364C684.244 260.795 687.659 259.51 691.921 259.51H711.191V255.75C711.191 254.81 710.877 254.027 710.251 253.4C709.624 252.773 708.841 252.46 707.901 252.46C703.827 252.46 699.315 252.648 694.365 253.024C689.477 253.4 685.529 253.682 682.521 253.87V242.12ZM780.255 290.06C768.536 291.313 758.196 291.94 749.235 291.94C744.974 291.94 741.558 290.655 738.989 288.086C736.42 285.517 735.135 282.101 735.135 277.84V256.22C735.135 251.52 736.451 247.854 739.083 245.222C741.778 242.527 745.475 241.18 750.175 241.18H780.255V253.87H755.345C752.838 253.87 751.585 255.123 751.585 257.63V275.96C751.585 276.9 751.898 277.683 752.525 278.31C753.152 278.937 753.935 279.25 754.875 279.25C760.515 279.25 768.975 278.78 780.255 277.84V290.06ZM804.207 271.26V291H787.757V225.2H804.207V258.57H811.727L822.067 241.18H839.457L825.357 265.15L839.457 291H822.067L811.257 271.26H804.207Z" fill="#CBCBCB"/>
<defs>
<linearGradient id="paint0_linear_1_6" x1="736.061" y1="97" x2="193.484" y2="181.072" gradientUnits="userSpaceOnUse">
<stop offset="0.350962" stop-color="#B91C1C"/>
<stop offset="1" stop-color="#F59E0B"/>
</linearGradient>
</defs>
</svg>
