<svg width="826" height="144" viewBox="0 0 826 144" fill="none" xmlns="http://www.w3.org/2000/svg">
<path d="M59.3711 63C52.3044 63 44.3044 64.3333 35.3711 67V142H0.371094V36H31.3711L33.3711 46C39.6378 41.8667 46.0378 38.8667 52.5711 37C59.2378 35 64.8378 34 69.3711 34H78.3711C87.4378 34 94.7044 36.7333 100.171 42.2C105.638 47.6667 108.371 54.9333 108.371 64V142H73.3711V70C73.3711 68 72.7044 66.3333 71.3711 65C70.0378 63.6667 68.3711 63 66.3711 63H59.3711ZM234.348 112C234.348 122 231.481 129.867 225.748 135.6C220.148 141.2 212.348 144 202.348 144H156.348C146.348 144 138.481 141.2 132.748 135.6C127.148 129.867 124.348 122 124.348 112V66C124.348 56 127.148 48.2 132.748 42.6C138.481 36.8667 146.348 34 156.348 34H202.348C212.348 34 220.148 36.8667 225.748 42.6C231.481 48.2 234.348 56 234.348 66V112ZM199.348 69C199.348 63.6667 196.681 61 191.348 61H167.348C162.014 61 159.348 63.6667 159.348 69V109C159.348 114.333 162.014 117 167.348 117H191.348C196.681 117 199.348 114.333 199.348 109V69ZM296.324 40V142H261.324V67H246.324V40H296.324ZM261.324 -7.62939e-06H296.324V28H261.324V-7.62939e-06ZM312.387 114C339.453 116 360.787 117 376.387 117C378.387 117 380.053 116.333 381.387 115C382.72 113.667 383.387 112 383.387 110V103H340.387C331.32 103 324.053 100.267 318.587 94.8C313.12 89.3333 310.387 82.0667 310.387 73V66C310.387 56.9333 313.12 49.6667 318.587 44.2C324.053 38.7333 331.32 36 340.387 36H408.387V62H352.387C350.387 62 348.72 62.6667 347.387 64C346.053 65.3333 345.387 67 345.387 69C345.387 71 346.053 72.6667 347.387 74C348.72 75.3333 350.387 76 352.387 76H388.387C397.453 76 404.72 78.7333 410.187 84.2C415.653 89.6667 418.387 96.9333 418.387 106V114C418.387 123.067 415.653 130.333 410.187 135.8C404.72 141.267 397.453 144 388.387 144C364.787 144 339.453 142.667 312.387 140V114ZM473.402 59C468.069 59 465.402 61.6667 465.402 67V78H499.402V67C499.402 61.6667 496.736 59 491.402 59H473.402ZM530.402 140C504.669 142.667 481.336 144 460.402 144C451.336 144 444.069 141.267 438.602 135.8C433.136 130.333 430.402 123.067 430.402 114V66C430.402 56 433.202 48.2 438.802 42.6C444.536 36.8667 452.402 34 462.402 34H502.402C512.402 34 520.202 36.8667 525.802 42.6C531.536 48.2 534.402 56 534.402 66V103H465.402V111C465.402 113 466.069 114.667 467.402 116C468.736 117.333 470.402 118 472.402 118C485.602 118 504.936 117 530.402 115V140ZM590.324 142H554.324V1.99999H590.324V57H608.324L639.524 1.99999H677.524L638.324 71L677.324 142H639.324L608.324 85H590.324V142ZM731.48 40V142H696.48V67H681.48V40H731.48ZM696.48 -7.62939e-06H731.48V28H696.48V-7.62939e-06ZM825.543 142C812.61 143.333 799.943 144 787.543 144C778.476 144 771.21 141.267 765.743 135.8C760.276 130.333 757.543 123.067 757.543 114V63H745.543V36H757.543L761.543 12H792.543V36H817.543V63H792.543V109C792.543 111 793.21 112.667 794.543 114C795.876 115.333 797.543 116 799.543 116H825.543V142Z" fill="url(#paint0_linear_1_3)"/>
<defs>
<linearGradient id="paint0_linear_1_3" x1="726.061" y1="54" x2="183.484" y2="138.072" gradientUnits="userSpaceOnUse">
<stop offset="0.350962" stop-color="#B91C1C"/>
<stop offset="1" stop-color="#F59E0B"/>
</linearGradient>
</defs>
</svg>
